<svg xmlns="http://www.w3.org/2000/svg" width="34.387" height="35.001" viewBox="0 0 34.387 35.001">
  <g id="Submit_Feedback" data-name="Submit Feedback" transform="translate(-4.491)">
    <path id="Path_67" data-name="Path 67" d="M11.669,271.979H5.516A1.015,1.015,0,0,0,4.491,273V285.31a1.015,1.015,0,0,0,1.025,1.025h6.153a1.015,1.015,0,0,0,1.025-1.025V273A1.015,1.015,0,0,0,11.669,271.979Zm-3.076,6.153a1.025,1.025,0,1,1,1.025-1.025A1.015,1.015,0,0,1,8.593,278.132Z" transform="translate(0 -253.385)" fill="#f84445"/>
    <path id="Path_68" data-name="Path 68" d="M345.183,10.6a.506.506,0,0,1-.2-.5l.557-3.251-2.362-2.3a.512.512,0,0,1,.285-.873l3.263-.475L348.183.24a.56.56,0,0,1,.918,0L350.562,3.2l3.263.475a.512.512,0,0,1,.285.873l-2.362,2.3L352.3,10.1a.506.506,0,0,1-.2.5.512.512,0,0,1-.538.04L348.642,9.1l-2.919,1.533A.511.511,0,0,1,345.183,10.6Z" transform="translate(-315.386 0)" fill="#f84445"/>
    <path id="Path_69" data-name="Path 69" d="M180.184,10.6a.507.507,0,0,1-.2-.5l.557-3.251-2.362-2.3a.512.512,0,0,1,.285-.873l3.263-.475L183.183.24a.56.56,0,0,1,.918,0L185.562,3.2l3.263.475a.512.512,0,0,1,.285.873l-2.362,2.3L187.3,10.1a.506.506,0,0,1-.2.5.512.512,0,0,1-.538.04L183.642,9.1l-2.919,1.533A.513.513,0,0,1,180.184,10.6Z" transform="translate(-161.666 0)" fill="#f84445"/>
    <path id="Path_70" data-name="Path 70" d="M15.183,10.6a.506.506,0,0,1-.2-.5l.557-3.251-2.362-2.3a.512.512,0,0,1,.285-.873L16.723,3.2,18.183.24a.559.559,0,0,1,.918,0L20.562,3.2l3.263.475a.512.512,0,0,1,.285.873l-2.362,2.3L22.3,10.1a.506.506,0,0,1-.2.5.512.512,0,0,1-.538.04L18.642,9.1l-2.919,1.533A.511.511,0,0,1,15.183,10.6Z" transform="translate(-7.946 0)" fill="#f84445"/>
    <path id="Path_71" data-name="Path 71" d="M174.775,196.213a3.017,3.017,0,0,1,.226,1.148,3.058,3.058,0,0,1-2.277,2.953,3.017,3.017,0,0,1,.226,1.149,3.072,3.072,0,0,1-3.076,3.076h-5.312a8.047,8.047,0,0,1-5.66-2.359,6.084,6.084,0,0,0-4.225-1.743h-.185V190.184h1.046a11.547,11.547,0,0,0,5.373-1.477c3.835-2.195,3.835-3.323,3.835-5.538a1.149,1.149,0,0,1,.308-.8,1.054,1.054,0,0,1,.718-.39,4.921,4.921,0,0,1,4.717,2.769,5.929,5.929,0,0,1-.656,5.435h4.143a3.067,3.067,0,0,1,.8,6.03Z" transform="translate(-139.745 -169.539)" fill="#f84445"/>
  </g>
</svg>
